<svg width="50" height="117" viewBox="0 0 50 117" fill="none" xmlns="http://www.w3.org/2000/svg">
<g clip-path="url(#clip0_15_153)">
<path d="M49.1707 0.141846V116.505H28.0911V20.6532H27.4093L0.193359 38.0396V18.7214L29.1138 0.141846H49.1707Z" fill="url(#paint0_linear_15_153)"/>
<mask id="mask0_15_153" style="mask-type:luminance" maskUnits="userSpaceOnUse" x="0" y="0" width="50" height="117">
<path d="M49.1707 0.141846V116.505H28.0911V20.6532H27.4093L0.193359 38.0396V18.7214L29.1138 0.141846H49.1707Z" fill="white"/>
</mask>
<g mask="url(#mask0_15_153)">
<path d="M49.1709 0.141797H49.4709V-0.158203H49.1709V0.141797ZM49.1709 116.505V116.805H49.4709V116.505H49.1709ZM28.0913 116.505H27.7913V116.805H28.0913V116.505ZM28.0913 20.6532H28.3913V20.3532H28.0913V20.6532ZM27.4095 20.6532V20.3532H27.3218L27.248 20.4004L27.4095 20.6532ZM0.193555 38.0396H-0.106445V38.5872L0.355062 38.2924L0.193555 38.0396ZM0.193555 18.7214L0.0314024 18.469L-0.106445 18.5575V18.7214H0.193555ZM29.114 0.141797V-0.158203H29.026L28.9519 -0.110605L29.114 0.141797ZM48.8709 0.141797V116.505H49.4709V0.141797H48.8709ZM49.1709 116.205H28.0913V116.805H49.1709V116.205ZM28.3913 116.505V20.6532H27.7913V116.505H28.3913ZM28.0913 20.3532H27.4095V20.9532H28.0913V20.3532ZM27.248 20.4004L0.032048 37.7867L0.355062 38.2924L27.571 20.906L27.248 20.4004ZM0.493555 38.0396V18.7214H-0.106445V38.0396H0.493555ZM0.355707 18.9738L29.2762 0.394199L28.9519 -0.110605L0.0314024 18.469L0.355707 18.9738ZM29.114 0.441797H49.1709V-0.158203H29.114V0.441797Z" fill="#F5F5F5"/>
</g>
</g>
<defs>
<linearGradient id="paint0_linear_15_153" x1="148" y1="3.50548" x2="148" y2="113.505" gradientUnits="userSpaceOnUse">
<stop stop-color="#F5F5F5"/>
<stop offset="1" stop-color="#FCFCFC"/>
</linearGradient>
<clipPath id="clip0_15_153">
<rect width="50" height="117" fill="white"/>
</clipPath>
</defs>
</svg>
