<svg width="81" height="119" viewBox="0 0 81 119" fill="none" xmlns="http://www.w3.org/2000/svg">
<g clip-path="url(#clip0_15_159)">
<path d="M0.840999 118.505V103.278L41.2387 63.6758C45.1024 59.7743 48.3221 56.3084 50.8978 53.2781C53.4736 50.2478 55.4054 47.3122 56.6933 44.4713C57.9812 41.6304 58.6251 38.6001 58.6251 35.3804C58.6251 31.7061 57.7918 28.5622 56.1251 25.9486C54.4584 23.297 52.1668 21.2516 49.2501 19.8122C46.3334 18.3728 43.019 17.6531 39.3069 17.6531C35.4812 17.6531 32.1289 18.4485 29.2501 20.0395C26.3713 21.5925 24.1365 23.8084 22.5456 26.6872C20.9925 29.566 20.216 32.994 20.216 36.9713H0.15918C0.15918 29.5849 1.84479 23.1645 5.216 17.7099C8.58721 12.2554 13.2274 8.03184 19.1365 5.03942C25.0834 2.04699 31.9016 0.550781 39.591 0.550781C47.394 0.550781 54.2501 2.00911 60.1592 4.92578C66.0683 7.84245 70.6516 11.8387 73.9092 16.9145C77.2046 21.9902 78.8524 27.7857 78.8524 34.3008C78.8524 38.6569 78.019 42.9372 76.3524 47.1417C74.6857 51.3463 71.7501 56.0054 67.5456 61.119C63.3789 66.2326 57.5266 72.4258 49.9887 79.6986L29.9319 100.096V100.892H80.6137V118.505H0.840999Z" fill="url(#paint0_linear_15_159)"/>
<mask id="mask0_15_159" style="mask-type:luminance" maskUnits="userSpaceOnUse" x="0" y="0" width="81" height="119">
<path d="M0.840999 118.505V103.278L41.2387 63.6758C45.1024 59.7743 48.3221 56.3084 50.8978 53.2781C53.4736 50.2478 55.4054 47.3122 56.6933 44.4713C57.9812 41.6304 58.6251 38.6001 58.6251 35.3804C58.6251 31.7061 57.7918 28.5622 56.1251 25.9486C54.4584 23.297 52.1668 21.2516 49.2501 19.8122C46.3334 18.3728 43.019 17.6531 39.3069 17.6531C35.4812 17.6531 32.1289 18.4485 29.2501 20.0395C26.3713 21.5925 24.1365 23.8084 22.5456 26.6872C20.9925 29.566 20.216 32.994 20.216 36.9713H0.15918C0.15918 29.5849 1.84479 23.1645 5.216 17.7099C8.58721 12.2554 13.2274 8.03184 19.1365 5.03942C25.0834 2.04699 31.9016 0.550781 39.591 0.550781C47.394 0.550781 54.2501 2.00911 60.1592 4.92578C66.0683 7.84245 70.6516 11.8387 73.9092 16.9145C77.2046 21.9902 78.8524 27.7857 78.8524 34.3008C78.8524 38.6569 78.019 42.9372 76.3524 47.1417C74.6857 51.3463 71.7501 56.0054 67.5456 61.119C63.3789 66.2326 57.5266 72.4258 49.9887 79.6986L29.9319 100.096V100.892H80.6137V118.505H0.840999Z" fill="white"/>
</mask>
<g mask="url(#mask0_15_159)">
<path d="M0.841194 118.505H0.541194V118.805H0.841194V118.505ZM0.841194 103.278L0.631182 103.064L0.541194 103.152V103.278H0.841194ZM41.2389 63.6757L41.449 63.89L41.4521 63.8868L41.2389 63.6757ZM56.1253 25.9485L55.8713 26.1081L55.8724 26.1098L56.1253 25.9485ZM29.2503 20.0394L29.3927 20.3034L29.3954 20.3019L29.2503 20.0394ZM22.5458 26.6871L22.2832 26.542L22.2817 26.5447L22.5458 26.6871ZM20.2162 36.9712V37.2712H20.5162V36.9712H20.2162ZM0.159375 36.9712H-0.140625V37.2712H0.159375V36.9712ZM73.9094 16.9144L73.6569 17.0764L73.6578 17.0777L73.9094 16.9144ZM67.5458 61.1189L67.314 60.9284L67.3132 60.9294L67.5458 61.1189ZM49.9889 79.6984L49.7806 79.4825L49.775 79.4881L49.9889 79.6984ZM29.9321 100.096L29.7182 99.8858L29.6321 99.9734V100.096H29.9321ZM29.9321 100.892H29.6321V101.192H29.9321V100.892ZM80.6139 100.892H80.9139V100.592H80.6139V100.892ZM80.6139 118.505V118.805H80.9139V118.505H80.6139ZM1.14119 118.505V103.278H0.541194V118.505H1.14119ZM1.0512 103.492L41.449 63.89L41.0289 63.4615L0.631182 103.064L1.0512 103.492ZM41.4521 63.8868C45.3192 59.9818 48.5445 56.5101 51.1266 53.4723L50.6694 53.0837C48.1001 56.1065 44.8859 59.5666 41.0258 63.4646L41.4521 63.8868ZM51.1266 53.4723C53.7158 50.4262 55.6646 47.4673 56.9667 44.595L56.4203 44.3473C55.1466 47.1569 53.2318 50.0691 50.6694 53.0837L51.1266 53.4723ZM56.9667 44.595C58.2728 41.714 58.9253 38.6413 58.9253 35.3803H58.3253C58.3253 38.5587 57.6899 41.5466 56.4203 44.3473L56.9667 44.595ZM58.9253 35.3803C58.9253 31.6596 58.081 28.4573 56.3782 25.7872L55.8724 26.1098C57.503 28.6669 58.3253 31.7524 58.3253 35.3803H58.9253ZM56.3793 25.7888C54.6819 23.0885 52.3475 21.006 49.3831 19.5431L49.1175 20.0811C51.9865 21.497 54.2353 23.5054 55.8713 26.1081L56.3793 25.7888ZM49.3831 19.5431C46.4196 18.0806 43.0588 17.353 39.3071 17.353V17.953C42.9797 17.953 46.2476 18.6648 49.1175 20.0811L49.3831 19.5431ZM39.3071 17.353C35.4389 17.353 32.0352 18.1576 29.1052 19.7768L29.3954 20.3019C32.223 18.7393 35.5238 17.953 39.3071 17.953V17.353ZM29.1079 19.7753C26.1782 21.3558 23.9017 23.6132 22.2832 26.542L22.8083 26.8322C24.3716 24.0034 26.5649 21.829 29.3927 20.3034L29.1079 19.7753ZM22.2817 26.5447C20.7005 29.4757 19.9162 32.9548 19.9162 36.9712H20.5162C20.5162 33.033 21.2849 29.6561 22.8098 26.8295L22.2817 26.5447ZM20.2162 36.6712H0.159375V37.2712H20.2162V36.6712ZM0.459375 36.9712C0.459375 29.6319 2.13369 23.2678 5.47138 17.8675L4.961 17.5521C1.55626 23.0609 -0.140625 29.5377 -0.140625 36.9712H0.459375ZM5.47138 17.8675C8.81259 12.4615 13.4106 8.27536 19.2722 5.30701L19.0018 4.77138C13.0452 7.78787 8.36221 12.049 4.961 17.5521L5.47138 17.8675ZM19.2722 5.30701C25.1713 2.33867 31.9414 0.850732 39.5912 0.850732V0.250732C31.8623 0.250732 24.9967 1.75486 19.0018 4.77138L19.2722 5.30701ZM39.5912 0.850732C47.3566 0.850732 54.1658 2.30189 60.0266 5.19475L60.2922 4.65672C54.3348 1.71624 47.4319 0.250732 39.5912 0.250732V0.850732ZM60.0266 5.19475C65.8915 8.0896 70.4315 12.0507 73.6569 17.0764L74.1619 16.7523C70.8722 11.6265 66.2455 7.5952 60.2922 4.65672L60.0266 5.19475ZM73.6578 17.0777C76.9192 22.1011 78.5526 27.8389 78.5526 34.3007H79.1526C79.1526 27.7322 77.4905 21.8791 74.161 16.751L73.6578 17.0777ZM78.5526 34.3007C78.5526 38.6175 77.727 42.8604 76.0737 47.0311L76.6315 47.2522C78.3115 43.0138 79.1526 38.6961 79.1526 34.3007H78.5526ZM76.0737 47.0311C74.4225 51.1966 71.5071 55.8287 67.314 60.9284L67.7775 61.3094C71.9935 56.1818 74.9493 51.4957 76.6315 47.2522L76.0737 47.0311ZM67.3132 60.9294C63.1571 66.03 57.3143 72.2138 49.7806 79.4825L50.1972 79.9143C57.7394 72.6375 63.6011 66.4351 67.7783 61.3084L67.3132 60.9294ZM49.775 79.4881L29.7182 99.8858L30.146 100.307L50.2029 79.9088L49.775 79.4881ZM29.6321 100.096V100.892H30.2321V100.096H29.6321ZM29.9321 101.192H80.6139V100.592H29.9321V101.192ZM80.3139 100.892V118.505H80.9139V100.892H80.3139ZM80.6139 118.205H0.841194V118.805H80.6139V118.205Z" fill="#F5F5F5"/>
</g>
</g>
<defs>
<linearGradient id="paint0_linear_15_159" x1="147" y1="5.50533" x2="147" y2="115.505" gradientUnits="userSpaceOnUse">
<stop stop-color="#F5F5F5"/>
<stop offset="1" stop-color="#FCFCFC"/>
</linearGradient>
<clipPath id="clip0_15_159">
<rect width="81" height="119" fill="white"/>
</clipPath>
</defs>
</svg>
