<svg width="87" height="121" viewBox="0 0 87 121" fill="none" xmlns="http://www.w3.org/2000/svg">
<g clip-path="url(#clip0_15_165)">
<path d="M43.6021 120.096C35.4203 120.096 28.1475 118.695 21.7839 115.892C15.4581 113.089 10.4581 109.187 6.78391 104.187C3.10967 99.1872 1.15891 93.4107 0.931641 86.8576H22.2953C22.4846 90.0016 23.5263 92.7478 25.4203 95.0963C27.3142 97.4069 29.8331 99.2061 32.9771 100.494C36.121 101.782 39.6437 102.426 43.5453 102.426C47.7119 102.426 51.4051 101.706 54.6248 100.267C57.8445 98.7895 60.3634 96.744 62.1816 94.1304C63.9998 91.5167 64.89 88.5054 64.8521 85.0963C64.89 81.5736 63.9809 78.4675 62.1248 75.7781C60.2687 73.0887 57.5793 70.9864 54.0566 69.4713C50.5718 67.9561 46.3672 67.1986 41.443 67.1986H31.1589V50.9486H41.443C45.496 50.9486 49.0377 50.2478 52.068 48.8463C55.1362 47.4448 57.5415 45.4751 59.2839 42.9372C61.0263 40.3614 61.8786 37.3879 61.8407 34.0167C61.8786 30.7213 61.14 27.8614 59.6248 25.4372C58.1475 22.9751 56.0453 21.0622 53.318 19.6986C50.6286 18.3349 47.4657 17.6531 43.8293 17.6531C40.2687 17.6531 36.9733 18.297 33.943 19.5849C30.9127 20.8728 28.4695 22.7099 26.6134 25.0963C24.7574 27.4448 23.7725 30.2478 23.6589 33.5054H3.37482C3.52634 26.9902 5.40134 21.2705 8.99982 16.3463C12.6362 11.3842 17.4846 7.52048 23.5453 4.75533C29.6059 1.9523 36.4051 0.550781 43.943 0.550781C51.7081 0.550781 58.4506 2.00911 64.1703 4.92578C69.9278 7.80457 74.3786 11.6872 77.5225 16.5736C80.6665 21.4599 82.2384 26.8576 82.2384 32.7667C82.2763 39.3198 80.3445 44.8122 76.443 49.244C72.5793 53.6758 67.5036 56.5735 61.2157 57.9372V58.8463C69.3975 59.9826 75.6665 63.0129 80.0225 67.9372C84.4165 72.8235 86.5945 78.9031 86.5566 86.1758C86.5566 92.691 84.7006 98.5243 80.9884 103.676C77.3142 108.789 72.2384 112.805 65.7612 115.721C59.3218 118.638 51.9354 120.096 43.6021 120.096Z" fill="url(#paint0_linear_15_165)"/>
<mask id="mask0_15_165" style="mask-type:luminance" maskUnits="userSpaceOnUse" x="0" y="0" width="87" height="121">
<path d="M43.6021 120.096C35.4203 120.096 28.1475 118.695 21.7839 115.892C15.4581 113.089 10.4581 109.187 6.78391 104.187C3.10967 99.1872 1.15891 93.4107 0.931641 86.8576H22.2953C22.4846 90.0016 23.5263 92.7478 25.4203 95.0963C27.3142 97.4069 29.8331 99.2061 32.9771 100.494C36.121 101.782 39.6437 102.426 43.5453 102.426C47.7119 102.426 51.4051 101.706 54.6248 100.267C57.8445 98.7895 60.3634 96.744 62.1816 94.1304C63.9998 91.5167 64.89 88.5054 64.8521 85.0963C64.89 81.5736 63.9809 78.4675 62.1248 75.7781C60.2687 73.0887 57.5793 70.9864 54.0566 69.4713C50.5718 67.9561 46.3672 67.1986 41.443 67.1986H31.1589V50.9486H41.443C45.496 50.9486 49.0377 50.2478 52.068 48.8463C55.1362 47.4448 57.5415 45.4751 59.2839 42.9372C61.0263 40.3614 61.8786 37.3879 61.8407 34.0167C61.8786 30.7213 61.14 27.8614 59.6248 25.4372C58.1475 22.9751 56.0453 21.0622 53.318 19.6986C50.6286 18.3349 47.4657 17.6531 43.8293 17.6531C40.2687 17.6531 36.9733 18.297 33.943 19.5849C30.9127 20.8728 28.4695 22.7099 26.6134 25.0963C24.7574 27.4448 23.7725 30.2478 23.6589 33.5054H3.37482C3.52634 26.9902 5.40134 21.2705 8.99982 16.3463C12.6362 11.3842 17.4846 7.52048 23.5453 4.75533C29.6059 1.9523 36.4051 0.550781 43.943 0.550781C51.7081 0.550781 58.4506 2.00911 64.1703 4.92578C69.9278 7.80457 74.3786 11.6872 77.5225 16.5736C80.6665 21.4599 82.2384 26.8576 82.2384 32.7667C82.2763 39.3198 80.3445 44.8122 76.443 49.244C72.5793 53.6758 67.5036 56.5735 61.2157 57.9372V58.8463C69.3975 59.9826 75.6665 63.0129 80.0225 67.9372C84.4165 72.8235 86.5945 78.9031 86.5566 86.1758C86.5566 92.691 84.7006 98.5243 80.9884 103.676C77.3142 108.789 72.2384 112.805 65.7612 115.721C59.3218 118.638 51.9354 120.096 43.6021 120.096Z" fill="white"/>
</mask>
<g mask="url(#mask0_15_165)">
<path d="M0.931679 86.8575V86.5575H0.621094L0.631859 86.8679L0.931679 86.8575ZM22.2954 86.8575L22.5948 86.8395L22.5778 86.5575H22.2954V86.8575ZM25.4204 95.0962L25.1868 95.2845L25.1883 95.2864L25.4204 95.0962ZM54.6249 100.267L54.7473 100.541L54.75 100.539L54.6249 100.267ZM64.8522 85.0962L64.5521 85.093L64.5522 85.0995L64.8522 85.0962ZM54.0567 69.4712L53.9371 69.7463L53.9382 69.7468L54.0567 69.4712ZM31.159 67.1985H30.859V67.4985H31.159V67.1985ZM31.159 50.9485V50.6485H30.859V50.9485H31.159ZM52.0681 48.8462L51.9434 48.5733L51.9422 48.5739L52.0681 48.8462ZM59.284 42.9371L59.5313 43.1069L59.5325 43.1052L59.284 42.9371ZM61.8408 34.0166L61.5408 34.0132V34.02L61.8408 34.0166ZM59.6249 25.4371L59.3676 25.5915L59.3705 25.5961L59.6249 25.4371ZM53.3181 19.6985L53.1824 19.966L53.1839 19.9668L53.3181 19.6985ZM26.6135 25.0962L26.8489 25.2822L26.8503 25.2804L26.6135 25.0962ZM23.659 33.5053V33.8053H23.9487L23.9588 33.5157L23.659 33.5053ZM3.37486 33.5053L3.07494 33.4983L3.0678 33.8053H3.37486V33.5053ZM23.5454 4.75528L23.6699 5.02822L23.6713 5.02757L23.5454 4.75528ZM64.1704 4.92573L64.0341 5.193L64.0362 5.19406L64.1704 4.92573ZM82.2385 32.7666H81.9385V32.7684L82.2385 32.7666ZM76.4431 49.2439L76.2179 49.0457L76.2169 49.0468L76.4431 49.2439ZM61.2158 57.9371L61.1522 57.6439L60.9158 57.6952V57.9371H61.2158ZM61.2158 58.8462H60.9158V59.1074L61.1745 59.1433L61.2158 58.8462ZM80.0226 67.9371L79.7979 68.1359L79.7996 68.1377L80.0226 67.9371ZM86.5567 86.1757L86.2567 86.1742V86.1757H86.5567ZM80.9885 103.676L80.7451 103.5L80.7449 103.501L80.9885 103.676ZM43.6022 119.796C35.4547 119.796 28.2243 118.401 21.9049 115.617L21.6625 116.166C28.0703 118.989 35.386 120.396 43.6022 120.396V119.796ZM21.9049 115.617C15.6214 112.833 10.6656 108.963 7.0257 104.01L6.5422 104.365C10.2509 109.412 15.2945 113.344 21.6625 116.166L21.9049 115.617ZM7.0257 104.01C3.38928 99.0609 1.4568 93.3435 1.2315 86.8471L0.631859 86.8679C0.861098 93.4777 2.83014 99.3133 6.5422 104.365L7.0257 104.01ZM0.931679 87.1575H22.2954V86.5575H0.931679V87.1575ZM21.9959 86.8756C22.1889 90.0788 23.252 92.8853 25.1868 95.2845L25.6539 94.9079C23.8009 92.6101 22.7806 89.9241 22.5948 86.8395L21.9959 86.8756ZM25.1883 95.2864C27.118 97.6405 29.6798 99.4674 32.8635 100.772L33.0909 100.216C29.9866 98.9447 27.5106 97.1731 25.6524 94.906L25.1883 95.2864ZM32.8635 100.772C36.0484 102.076 39.6106 102.726 43.5454 102.726V102.126C39.6771 102.126 36.1938 101.487 33.0909 100.216L32.8635 100.772ZM43.5454 102.726C47.7467 102.726 51.4828 102 54.7473 100.541L54.5025 99.9928C51.3276 101.412 47.6774 102.126 43.5454 102.126V102.726ZM54.75 100.539C58.0128 99.0423 60.5759 96.964 62.428 94.3016L61.9354 93.959C60.1512 96.5238 57.6764 98.5365 54.4998 99.994L54.75 100.539ZM62.428 94.3016C64.2844 91.633 65.1907 88.5597 65.1522 85.0928L64.5522 85.0995C64.5894 88.4509 63.7154 91.4002 61.9354 93.959L62.428 94.3016ZM65.1522 85.0994C65.1907 81.5198 64.2659 78.352 62.3718 75.6076L61.878 75.9484C63.6961 78.5827 64.5894 81.6271 64.5521 85.093L65.1522 85.0994ZM62.3718 75.6076C60.4785 72.8642 57.7407 70.7291 54.1753 69.1956L53.9382 69.7468C57.4182 71.2436 60.0592 73.313 61.878 75.9484L62.3718 75.6076ZM54.1763 69.1961C50.6444 67.6604 46.3968 66.8985 41.4431 66.8985V67.4985C46.3378 67.4985 50.4994 68.2516 53.9371 69.7463L54.1763 69.1961ZM41.4431 66.8985H31.159V67.4985H41.4431V66.8985ZM31.459 67.1985V50.9485H30.859V67.1985H31.459ZM31.159 51.2485H41.4431V50.6485H31.159V51.2485ZM41.4431 51.2485C45.5305 51.2485 49.1167 50.5417 52.194 49.1185L51.9422 48.5739C48.9588 49.9537 45.4618 50.6485 41.4431 50.6485V51.2485ZM52.1927 49.1191C55.3055 47.6972 57.7552 45.6938 59.5313 43.1069L59.0367 42.7673C57.3279 45.2561 54.967 47.1922 51.9434 48.5733L52.1927 49.1191ZM59.5325 43.1052C61.312 40.4745 62.1793 37.4401 62.1408 34.0133L61.5408 34.02C61.5781 37.3355 60.7408 40.2481 59.0355 42.769L59.5325 43.1052ZM62.1408 34.0201C62.1792 30.6762 61.4293 27.7581 59.8793 25.2781L59.3705 25.5961C60.8508 27.9646 61.5782 30.7661 61.5408 34.0132L62.1408 34.0201ZM59.8821 25.2827C58.3737 22.7686 56.2272 20.8176 53.4522 19.4301L53.1839 19.9668C55.8635 21.3066 57.9215 23.1814 59.3676 25.5915L59.8821 25.2827ZM53.4538 19.4309C50.7145 18.042 47.5034 17.353 43.8294 17.353V17.953C47.4283 17.953 50.5429 18.6277 53.1824 19.966L53.4538 19.4309ZM43.8294 17.353C40.2318 17.353 36.8961 18.0038 33.8257 19.3087L34.0604 19.8609C37.0507 18.59 40.3059 17.953 43.8294 17.953V17.353ZM33.8257 19.3087C30.7527 20.6147 28.2669 22.4818 26.3767 24.912L26.8503 25.2804C28.6723 22.9378 31.0728 21.1306 34.0604 19.8609L33.8257 19.3087ZM26.3782 24.9102C24.4789 27.3133 23.4748 30.1793 23.3592 33.4948L23.9588 33.5157C24.0704 30.316 25.0361 27.576 26.8489 25.2822L26.3782 24.9102ZM23.659 33.2053H3.37486V33.8053H23.659V33.2053ZM3.67478 33.5122C3.82497 27.0539 5.68226 21.3945 9.24208 16.5232L8.75788 16.1689C5.12073 21.146 3.22778 26.9263 3.07494 33.4983L3.67478 33.5122ZM9.24208 16.5232C12.8456 11.6059 17.652 7.77388 23.6699 5.02822L23.4208 4.48235C17.3175 7.26698 12.4271 11.1619 8.75788 16.1689L9.24208 16.5232ZM23.6713 5.02757C29.6876 2.24501 36.4431 0.850732 43.9431 0.850732V0.250732C36.3673 0.250732 29.5243 1.65948 23.4194 4.48299L23.6713 5.02757ZM43.9431 0.850732C51.6707 0.850732 58.3645 2.30191 64.0341 5.193L64.3066 4.65847C58.5368 1.71623 51.7458 0.250732 43.9431 0.250732V0.850732ZM64.0362 5.19406C69.7509 8.05143 74.1586 11.8995 77.2703 16.7358L77.7749 16.4111C74.5988 11.4747 70.1049 7.55761 64.3045 4.6574L64.0362 5.19406ZM77.2703 16.7358C80.3826 21.5729 81.9385 26.9141 81.9385 32.7666H82.5385C82.5385 26.801 80.9506 21.3468 77.7749 16.4111L77.2703 16.7358ZM81.9385 32.7684C81.9761 39.2565 80.0653 44.6753 76.2179 49.0457L76.6683 49.4421C80.6239 44.9489 82.5768 39.3828 82.5385 32.7649L81.9385 32.7684ZM76.2169 49.0468C72.3998 53.4253 67.3833 56.2926 61.1522 57.6439L61.2794 58.2303C67.6241 56.8543 72.7591 53.9262 76.6692 49.441L76.2169 49.0468ZM60.9158 57.9371V58.8462H61.5158V57.9371H60.9158ZM61.1745 59.1433C69.3042 60.2724 75.5005 63.2779 79.7979 68.1359L80.2473 67.7383C75.8326 62.7478 69.4911 59.6926 61.2571 58.549L61.1745 59.1433ZM79.7996 68.1377C84.1381 72.9625 86.2943 78.9674 86.2567 86.1742L86.8567 86.1773C86.8949 78.8386 84.695 72.6844 80.2457 67.7365L79.7996 68.1377ZM86.2567 86.1757C86.2567 92.6297 84.4194 98.4013 80.7451 103.5L81.2319 103.851C84.9819 98.6471 86.8567 92.7521 86.8567 86.1757H86.2567ZM80.7449 103.501C77.1052 108.566 72.0735 112.55 65.6381 115.448L65.8844 115.995C72.4035 113.059 77.5231 109.013 81.2319 103.851L80.7449 103.501ZM65.6381 115.448C59.2439 118.344 51.9004 119.796 43.6022 119.796V120.396C51.9706 120.396 59.3998 118.932 65.8844 115.995L65.6381 115.448Z" fill="#F5F5F5"/>
</g>
</g>
<defs>
<linearGradient id="paint0_linear_15_165" x1="148" y1="5.50533" x2="148" y2="115.505" gradientUnits="userSpaceOnUse">
<stop stop-color="#F5F5F5"/>
<stop offset="1" stop-color="#FCFCFC"/>
</linearGradient>
<clipPath id="clip0_15_165">
<rect width="87" height="121" fill="white"/>
</clipPath>
</defs>
</svg>
