<svg width="232" height="726" viewBox="0 0 232 726" fill="none" xmlns="http://www.w3.org/2000/svg">
<path d="M36.5939 297.894C90.3809 351.68 123.914 415.505 134.668 475.198C145.422 534.892 133.391 590.403 96.1299 627.664C58.8689 664.925 3.35791 676.955 -56.3361 666.201C-116.028 655.448 -179.854 621.914 -233.64 568.128C-287.426 514.341 -320.96 450.516 -331.713 390.824C-342.468 331.13 -330.437 275.619 -293.176 238.358C-255.915 201.097 -200.404 189.066 -140.71 199.82C-81.0171 210.574 -17.1921 244.107 36.5939 297.894Z" stroke="#23BDEE"/>
<path d="M68.861 265.627C122.647 319.413 156.181 383.238 166.934 442.931C177.688 502.625 165.657 558.136 128.397 595.397C91.136 632.658 35.625 644.688 -24.07 633.934C-83.762 623.181 -147.587 589.647 -201.373 535.861C-255.16 482.074 -288.693 418.249 -299.447 358.557C-310.201 298.862 -298.17 243.352 -260.909 206.091C-223.648 168.83 -168.138 156.799 -108.443 167.553C-48.751 178.307 15.074 211.84 68.861 265.627Z" stroke="#23BDEE"/>
<path d="M101.128 233.36C154.915 287.147 188.448 350.972 199.202 410.664C209.956 470.359 197.925 525.869 160.664 563.13C123.403 600.391 67.8932 612.422 8.19824 601.668C-51.4938 590.914 -115.319 557.381 -169.106 503.594C-222.892 449.808 -256.426 385.983 -267.179 326.29C-277.933 266.596 -265.903 211.085 -228.642 173.824C-191.381 136.563 -135.87 124.532 -76.1758 135.286C-16.4828 146.04 47.3422 179.574 101.128 233.36Z" stroke="#23BDEE"/>
</svg>
