<svg width="243" height="486" viewBox="0 0 243 486" fill="none" xmlns="http://www.w3.org/2000/svg">
<path d="M373.083 150.546C426.87 198.833 460.403 256.134 471.157 309.725C481.911 363.316 469.88 413.152 432.619 446.604C395.358 480.056 339.847 490.856 280.153 481.202C220.461 471.548 156.635 441.442 102.849 393.155C49.0627 344.866 15.5287 287.566 4.77528 233.976C-5.97882 180.384 6.05199 130.548 43.3127 97.096C80.5737 63.6441 136.085 52.843 195.779 62.4977C255.472 72.1523 319.297 102.257 373.083 150.546Z" stroke="#23BDEE"/>
<path d="M405.35 121.577C459.136 169.865 492.67 227.165 503.423 280.756C514.177 334.347 502.146 384.184 464.886 417.636C427.625 451.087 372.114 461.888 312.419 452.233C252.727 442.579 188.902 412.473 135.116 364.186C81.3288 315.897 47.7958 258.597 37.0418 205.007C26.2878 151.415 38.3188 101.579 75.5798 68.1273C112.841 34.6754 168.351 23.8743 228.046 33.5289C287.738 43.1836 351.563 73.2886 405.35 121.577Z" stroke="#23BDEE"/>
<path d="M437.617 92.6082C491.404 140.897 524.937 198.197 535.691 251.787C546.445 305.38 534.414 355.215 497.153 388.667C459.892 422.119 404.382 432.92 344.687 423.265C284.995 413.611 221.17 383.505 167.383 335.217C113.597 286.929 80.0628 229.629 69.3098 176.038C58.5558 122.447 70.5858 72.6104 107.847 39.1584C145.108 5.70689 200.619 -5.09395 260.313 4.56069C320.006 14.2147 383.831 44.3206 437.617 92.6082Z" stroke="#23BDEE"/>
</svg>
